<svg width="650.423779296875px" height="122.021240234375px" xmlns="http://www.w3.org/2000/svg" viewBox="-75.21188964843748 13.9893798828125 650.423779296875 122.021240234375" style="background: rgb(255, 255, 255);" preserveAspectRatio="xMidYMid"><defs><filter id="editing-hover" x="-100%" y="-100%" width="300%" height="300%"><feFlood flood-color="rgba(100%,100%,100%,0.14)" result="flood"></feFlood><feComposite operator="in" in2="SourceAlpha" in="flood" result="shadow"></feComposite><feOffset dx="0.1" dy="-4" in="SourceGraphic" result="offset-1"></feOffset><feOffset dx="-0.1" dy="4" in="shadow" result="offset-2"></feOffset><feMerge><feMergeNode in="offset-2"></feMergeNode><feMergeNode in="offset-1"></feMergeNode></feMerge></filter></defs><g filter="url(#editing-hover)"><g transform="translate(18.604678362607956, 98.43781280517578)"><path d="M21.12-17.98L21.12-17.98L21.12-17.98Q23.42-22.08 23.42-26.24L23.42-26.24L23.42-26.24Q23.42-28.99 21.44-28.99L21.44-28.99L21.44-28.99Q19.90-28.99 18.30-26.37L18.30-26.37L18.30-26.37Q16.64-23.74 16.13-20.35L16.13-20.35L12.80 0L-0.45 1.28L6.08-32.64L16.64-33.92L15.49-27.46L15.49-27.46Q18.62-33.92 25.66-33.92L25.66-33.92L25.66-33.92Q29.38-33.92 31.39-32L31.39-32L31.39-32Q33.41-30.08 33.41-26.14L33.41-26.14L33.41-26.14Q33.41-22.21 30.82-19.71L30.82-19.71L30.82-19.71Q28.22-17.22 23.81-17.22L23.81-17.22L23.81-17.22Q21.89-17.22 21.12-17.98ZM60.35-10.82L60.35-10.82L60.35-10.82Q61.95-9.73 61.95-7.33L61.95-7.33L61.95-7.33Q61.95-4.93 60.74-3.39L60.74-3.39L60.74-3.39Q59.52-1.86 57.54-0.83L57.54-0.83L57.54-0.83Q53.44 1.28 49.02 1.28L49.02 1.28L49.02 1.28Q44.61 1.28 42.02 0.32L42.02 0.32L42.02 0.32Q39.42-0.64 37.70-2.43L37.70-2.43L37.70-2.43Q34.30-5.82 34.30-12.03L34.30-12.03L34.30-12.03Q34.30-21.70 39.55-27.58L39.55-27.58L39.55-27.58Q45.18-33.92 54.98-33.92L54.98-33.92L54.98-33.92Q61.06-33.92 64.06-31.36L64.06-31.36L64.06-31.36Q66.30-29.44 66.30-26.30L66.30-26.30L66.30-26.30Q66.30-15.04 46.85-15.04L46.85-15.04L46.85-15.04Q46.59-13.38 46.59-11.97L46.59-11.97L46.59-11.97Q46.59-9.02 47.90-7.90L47.90-7.90L47.90-7.90Q49.22-6.78 51.65-6.78L51.65-6.78L51.65-6.78Q54.08-6.78 56.67-7.90L56.67-7.90L56.67-7.90Q59.26-9.02 60.35-10.82ZM47.30-17.79L47.30-17.79L47.30-17.79Q51.84-17.79 54.46-20.61L54.46-20.61L54.46-20.61Q57.09-23.30 57.09-27.58L57.09-27.58L57.09-27.58Q57.09-29.06 56.54-29.86L56.54-29.86L56.54-29.86Q56-30.66 54.91-30.66L54.91-30.66L54.91-30.66Q53.82-30.66 52.90-30.24L52.90-30.24L52.90-30.24Q51.97-29.82 51.01-28.42L51.01-28.42L51.01-28.42Q48.64-25.22 47.30-17.79ZM71.26-1.92L71.26-1.92L71.26-1.92Q69.76-3.58 69.09-6.21L69.09-6.21L69.09-6.21Q68.42-8.83 68.42-13.12L68.42-13.12L68.42-13.12Q68.42-17.41 69.89-21.31L69.89-21.31L69.89-21.31Q71.36-25.22 74.05-28.03L74.05-28.03L74.05-28.03Q79.55-33.92 88.64-33.92L88.64-33.92L88.64-33.92Q91.90-33.92 94.27-32.83L94.27-32.83L105.22-33.92L100.48-8.96L100.48-8.96Q100.29-8.19 100.29-6.78L100.29-6.78L100.29-6.78Q100.29-5.38 101.15-4.48L101.15-4.48L101.15-4.48Q102.02-3.58 103.30-3.46L103.30-3.46L103.30-3.46Q102.66-1.28 100.32 0L100.32 0L100.32 0Q97.98 1.28 95.36 1.28L95.36 1.28L95.36 1.28Q92.74 1.28 90.98 0.29L90.98 0.29L90.98 0.29Q89.22-0.70 88.70-2.37L88.70-2.37L88.70-2.37Q87.68-0.77 85.50 0.26L85.50 0.26L85.50 0.26Q83.33 1.28 80.42 1.28L80.42 1.28L80.42 1.28Q77.50 1.28 75.14 0.51L75.14 0.51L75.14 0.51Q72.77-0.26 71.26-1.92ZM84.77-27.90L84.77-27.90L84.77-27.90Q84.03-26.75 83.39-24.80L83.39-24.80L83.39-24.80Q82.75-22.85 81.70-17.63L81.70-17.63L81.70-17.63Q80.64-12.42 80.64-8.70L80.64-8.70L80.64-8.70Q80.64-4.99 81.22-3.90L81.22-3.90L81.22-3.90Q81.79-2.82 82.82-2.82L82.82-2.82L82.82-2.82Q84.86-2.82 86.37-4.77L86.37-4.77L86.37-4.77Q87.87-6.72 88.45-10.18L88.45-10.18L91.84-28.93L91.84-28.93Q90.50-30.08 88.93-30.08L88.93-30.08L88.93-30.08Q87.36-30.08 86.43-29.57L86.43-29.57L86.43-29.57Q85.50-29.06 84.77-27.90ZM139.84-26.62L139.84-26.62L139.84-26.62Q139.84-23.94 137.60-22.27L137.60-22.27L137.60-22.27Q135.36-20.61 131.71-20.61L131.71-20.61L131.71-20.61Q130.18-20.61 129.28-21.06L129.28-21.06L129.28-21.06Q129.98-22.72 130.21-24.80L130.21-24.80L130.21-24.80Q130.43-26.88 130.43-27.46L130.43-27.46L130.43-27.46Q130.43-30.14 128.58-30.14L128.58-30.14L128.58-30.14Q127.30-30.14 125.86-28.54L125.86-28.54L125.86-28.54Q124.42-26.94 123.20-24.45L123.20-24.45L123.20-24.45Q120.51-18.69 120.51-12.86L120.51-12.86L120.51-12.86Q120.51-9.66 121.73-8.22L121.73-8.22L121.73-8.22Q122.94-6.78 125.63-6.78L125.63-6.78L125.63-6.78Q129.34-6.78 132.29-9.86L132.29-9.86L132.29-9.86Q133.12-10.82 133.57-11.90L133.57-11.90L133.57-11.90Q136-10.62 136-7.10L136-7.10L136-7.10Q136-3.52 132.03-1.15L132.03-1.15L132.03-1.15Q127.94 1.28 121.41 1.28L121.41 1.28L121.41 1.28Q108.42 1.28 108.42-12.48L108.42-12.48L108.42-12.48Q108.42-22.53 114.11-28.29L114.11-28.29L114.11-28.29Q119.62-33.92 129.73-33.92L129.73-33.92L129.73-33.92Q139.84-33.92 139.84-26.62ZM142.59-6.40L142.59-6.40L142.59-6.40Q142.59-8.13 143.49-12.48L143.49-12.48L146.88-29.76L143.10-29.76L143.36-31.68L143.36-31.68Q151.04-33.98 158.46-39.62L158.46-39.62L161.54-39.62L160.00-32.64L164.99-32.64L164.42-29.76L159.49-29.76L156.22-12.48L156.22-12.48Q155.39-8.51 155.39-7.17L155.39-7.17L155.39-7.17Q155.39-4.10 158.08-3.46L158.08-3.46L158.08-3.46Q157.44-1.28 155.14 0L155.14 0L155.14 0Q152.83 1.28 149.57 1.28L149.57 1.28L149.57 1.28Q146.30 1.28 144.45-0.77L144.45-0.77L144.45-0.77Q142.59-2.82 142.59-6.40ZM167.04-10.37L167.04-10.37L167.04-10.37Q164.99-11.84 164.99-14.66L164.99-14.66L164.99-14.66Q164.99-16.19 165.76-17.44L165.76-17.44L165.76-17.44Q166.53-18.69 168.06-18.88L168.06-18.88L180.67-18.88L180.67-18.88Q182.78-18.88 183.42-20.16L183.42-20.16L183.42-20.16Q184.45-19.58 184.90-18.37L184.90-18.37L184.90-18.37Q185.34-17.15 185.34-15.87L185.34-15.87L185.34-15.87Q185.34-14.59 184.35-13.34L184.35-13.34L184.35-13.34Q183.36-12.10 181.89-11.97L181.89-11.97L170.18-11.97L170.18-11.97Q168.83-11.97 168.19-11.55L168.19-11.55L168.19-11.55Q167.55-11.14 167.04-10.37ZM190.78-6.40L190.78-6.40L190.78-6.40Q190.78-8.13 191.68-12.48L191.68-12.48L195.07-29.76L191.30-29.76L191.55-31.68L191.55-31.68Q199.23-33.98 206.66-39.62L206.66-39.62L209.73-39.62L208.19-32.64L213.18-32.64L212.61-29.76L207.68-29.76L204.42-12.48L204.42-12.48Q203.58-8.51 203.58-7.17L203.58-7.17L203.58-7.17Q203.58-4.10 206.27-3.46L206.27-3.46L206.27-3.46Q205.63-1.28 203.33 0L203.33 0L203.33 0Q201.02 1.28 197.76 1.28L197.76 1.28L197.76 1.28Q194.50 1.28 192.64-0.77L192.64-0.77L192.64-0.77Q190.78-2.82 190.78-6.40ZM260.61-10.69L260.61-10.69Q256.38-4.86 252.32-1.79L252.32-1.79L252.32-1.79Q248.26 1.28 244.06 1.28L244.06 1.28L244.06 1.28Q239.87 1.28 238.40 0.45L238.40 0.45L238.40-13.63L238.40-13.63Q234.75-3.90 228.22-0.13L228.22-0.13L228.22-0.13Q225.86 1.28 223.62 1.28L223.62 1.28L223.62 1.28Q219.33 1.28 217.47 0.45L217.47 0.45L217.47 0.45Q217.02-14.21 216.64-18.27L216.64-18.27L216.64-18.27Q216.26-22.34 215.94-24.83L215.94-24.83L215.94-24.83Q215.30-29.82 213.12-31.87L213.12-31.87L213.12-31.87Q215.87-33.92 219.71-33.92L219.71-33.92L219.71-33.92Q227.14-33.92 228.16-24.70L228.16-24.70L228.16-24.70Q228.42-22.53 228.42-20.22L228.42-20.22L228.42-20.22Q228.42-16.77 227.65-4.74L227.65-4.74L227.65-4.74Q229.18-5.44 230.82-7.97L230.82-7.97L230.82-7.97Q232.45-10.50 233.79-13.95L233.79-13.95L233.79-13.95Q236.80-21.95 236.80-28.86L236.80-28.86L236.80-28.86Q236.80-29.95 236.51-31.10L236.51-31.10L236.51-31.10Q236.22-32.26 235.90-32.58L235.90-32.58L235.90-32.58Q238.14-33.92 241.57-33.92L241.57-33.92L241.57-33.92Q244.99-33.92 246.62-31.58L246.62-31.58L246.62-31.58Q248.26-29.25 248.70-24.96L248.70-24.96L248.70-24.96Q249.22-19.52 249.22-16.26L249.22-16.26L249.22-16.26Q249.22-11.71 248.77-4.99L248.77-4.99L248.77-4.99Q251.97-7.30 254.59-14.85L254.59-14.85L254.59-14.85Q257.22-22.40 257.22-27.78L257.22-27.78L257.22-27.78Q257.22-30.14 256.83-31.55L256.83-31.55L256.83-31.55Q258.94-33.92 262.59-33.92L262.59-33.92L262.59-33.92Q264.83-33.92 266.46-32.70L266.46-32.70L266.46-32.70Q268.10-31.49 268.10-29.22L268.10-29.22L268.10-29.22Q268.10-26.94 267.42-24.51L267.42-24.51L267.42-24.51Q266.75-22.08 265.66-19.58L265.66-19.58L265.66-19.58Q263.55-14.59 260.61-10.69L260.61-10.69ZM295.74-10.82L295.74-10.82L295.74-10.82Q297.34-9.73 297.34-7.33L297.34-7.33L297.34-7.33Q297.34-4.93 296.13-3.39L296.13-3.39L296.13-3.39Q294.91-1.86 292.93-0.83L292.93-0.83L292.93-0.83Q288.83 1.28 284.42 1.28L284.42 1.28L284.42 1.28Q280 1.28 277.41 0.32L277.41 0.32L277.41 0.32Q274.82-0.64 273.09-2.43L273.09-2.43L273.09-2.43Q269.70-5.82 269.70-12.03L269.70-12.03L269.70-12.03Q269.70-21.70 274.94-27.58L274.94-27.58L274.94-27.58Q280.58-33.92 290.37-33.92L290.37-33.92L290.37-33.92Q296.45-33.92 299.46-31.36L299.46-31.36L299.46-31.36Q301.70-29.44 301.70-26.30L301.70-26.30L301.70-26.30Q301.70-15.04 282.24-15.04L282.24-15.04L282.24-15.04Q281.98-13.38 281.98-11.97L281.98-11.97L281.98-11.97Q281.98-9.02 283.30-7.90L283.30-7.90L283.30-7.90Q284.61-6.78 287.04-6.78L287.04-6.78L287.04-6.78Q289.47-6.78 292.06-7.90L292.06-7.90L292.06-7.90Q294.66-9.02 295.74-10.82ZM282.69-17.79L282.69-17.79L282.69-17.79Q287.23-17.79 289.86-20.61L289.86-20.61L289.86-20.61Q292.48-23.30 292.48-27.58L292.48-27.58L292.48-27.58Q292.48-29.06 291.94-29.86L291.94-29.86L291.94-29.86Q291.39-30.66 290.30-30.66L290.30-30.66L290.30-30.66Q289.22-30.66 288.29-30.24L288.29-30.24L288.29-30.24Q287.36-29.82 286.40-28.42L286.40-28.42L286.40-28.42Q284.03-25.22 282.69-17.79ZM329.79-10.82L329.79-10.82L329.79-10.82Q331.39-9.73 331.39-7.33L331.39-7.33L331.39-7.33Q331.39-4.93 330.18-3.39L330.18-3.39L330.18-3.39Q328.96-1.86 326.98-0.83L326.98-0.83L326.98-0.83Q322.88 1.28 318.46 1.28L318.46 1.28L318.46 1.28Q314.05 1.28 311.46 0.32L311.46 0.32L311.46 0.32Q308.86-0.64 307.14-2.43L307.14-2.43L307.14-2.43Q303.74-5.82 303.74-12.03L303.74-12.03L303.74-12.03Q303.74-21.70 308.99-27.58L308.99-27.58L308.99-27.58Q314.62-33.92 324.42-33.92L324.42-33.92L324.42-33.92Q330.50-33.92 333.50-31.36L333.50-31.36L333.50-31.36Q335.74-29.44 335.74-26.30L335.74-26.30L335.74-26.30Q335.74-15.04 316.29-15.04L316.29-15.04L316.29-15.04Q316.03-13.38 316.03-11.97L316.03-11.97L316.03-11.97Q316.03-9.02 317.34-7.90L317.34-7.90L317.34-7.90Q318.66-6.78 321.09-6.78L321.09-6.78L321.09-6.78Q323.52-6.78 326.11-7.90L326.11-7.90L326.11-7.90Q328.70-9.02 329.79-10.82ZM316.74-17.79L316.74-17.79L316.74-17.79Q321.28-17.79 323.90-20.61L323.90-20.61L323.90-20.61Q326.53-23.30 326.53-27.58L326.53-27.58L326.53-27.58Q326.53-29.06 325.98-29.86L325.98-29.86L325.98-29.86Q325.44-30.66 324.35-30.66L324.35-30.66L324.35-30.66Q323.26-30.66 322.34-30.24L322.34-30.24L322.34-30.24Q321.41-29.82 320.45-28.42L320.45-28.42L320.45-28.42Q318.08-25.22 316.74-17.79ZM364.99 1.28L364.99 1.28L364.99 1.28Q357.25 1.28 357.25-4.74L357.25-4.74L357.25-4.74Q357.31-6.40 357.82-9.22L357.82-9.22L358.98-15.10L358.98-15.10Q360.70-23.42 360.70-25.28L360.70-25.28L360.70-25.28Q360.70-28.99 358.53-28.99L358.53-28.99L358.53-28.99Q354.88-28.99 352.96-19.46L352.96-19.46L349.18 0L336.32 1.28L342.98-32.70L353.47-33.92L352.45-27.65L352.45-27.65Q355.46-33.92 364.67-33.92L364.67-33.92L364.67-33.92Q369.15-33.92 371.04-32.03L371.04-32.03L371.04-32.03Q372.93-30.14 372.93-25.92L372.93-25.92L372.93-25.92Q372.93-21.95 370.88-12.67L370.88-12.67L370.88-12.67Q369.92-8.51 369.92-6.94L369.92-6.94L369.92-6.94Q369.92-5.38 370.78-4.48L370.78-4.48L370.78-4.48Q371.65-3.58 372.93-3.46L372.93-3.46L372.93-3.46Q372.29-1.28 370.08 0L370.08 0L370.08 0Q367.87 1.28 364.99 1.28ZM403.01-37.12L403.01-37.12L403.01-37.12Q403.90-38.66 403.90-40.32L403.90-40.32L403.90-40.32Q403.90-43.26 402.11-43.26L402.11-43.26L402.11-43.26Q399.36-43.26 398.21-37.63L398.21-37.63L397.25-32.64L403.07-32.64L402.69-29.76L396.67-29.76L390.91 0L377.98 1.28L384.13-29.76L379.58-29.76L380.16-32.64L384.64-32.64L385.98-37.70L385.98-37.70Q387.14-42.37 392.06-44.54L392.06-44.54L392.06-44.54Q395.65-46.08 401.66-46.08L401.66-46.08L401.66-46.08Q407.68-46.08 410.37-44.54L410.37-44.54L410.37-44.54Q413.06-43.01 413.06-40.96L413.06-40.96L413.06-40.96Q413.06-38.91 411.46-37.63L411.46-37.63L411.46-37.63Q409.86-36.35 408.06-36.35L408.06-36.35L408.06-36.35Q404.54-36.35 403.01-37.12ZM423.04-2.69L423.04-2.69L423.04-2.69Q419.97 1.28 412.35 1.28L412.35 1.28L412.35 1.28Q408.38 1.28 405.50-1.12L405.50-1.12L405.50-1.12Q402.62-3.52 402.62-6.98L402.62-6.98L402.62-6.98Q402.62-8.90 402.82-9.86L402.82-9.86L407.10-32.64L420.10-33.92L415.42-9.22L415.42-9.22Q415.17-7.81 415.17-6.98L415.17-6.98L415.17-6.98Q415.17-3.26 417.41-3.26L417.41-3.26L417.41-3.26Q419.90-3.26 421.70-6.66L421.70-6.66L421.70-6.66Q422.27-7.74 422.53-9.15L422.53-9.15L427.07-32.64L439.68-33.92L434.94-8.96L434.94-8.96Q434.75-8 434.75-6.98L434.75-6.98L434.75-6.98Q434.75-5.95 435.33-4.83L435.33-4.83L435.33-4.83Q435.90-3.71 437.76-3.46L437.76-3.46L437.76-3.46Q437.38-1.92 436.03-0.90L436.03-0.90L436.03-0.90Q433.22 1.28 430.18 1.28L430.18 1.28L430.18 1.28Q427.14 1.28 425.34 0.19L425.34 0.19L425.34 0.19Q423.55-0.90 423.04-2.69ZM458.43-3.52L458.43-3.52L458.43-3.52Q456.45 1.28 450.11 1.28L450.11 1.28L450.11 1.28Q446.91 1.28 444.86-0.96L444.86-0.96L444.86-0.96Q443.20-2.82 443.20-4.93L443.20-4.93L443.20-4.93Q443.20-9.73 445.44-20.22L445.44-20.22L450.11-44.80L463.10-46.08L456.90-13.70L456.90-13.70Q455.81-8.96 455.81-7.30L455.81-7.30L455.81-7.30Q455.81-3.65 458.43-3.52Z" fill="#00d8ff"></path></g></g><style>text {
  font-size: 64px;
  font-family: Arial Black;
  dominant-baseline: central;
  text-anchor: middle;
}</style></svg>